# xmcd
#
# Track frame offsets:
#   150
#   17649
#   36659
#   52093
#   70782
#   88099
#   101917
#   123088
#   139947
#   154014
#   169687
#   185737
#   198896
#
# Disc length: 2916 seconds
#
# Revision: 0
# Processed by: cddbd v1.5.1PL2 Copyright (c) Steve Scherf et al.
# Submitted via: uFREEDB ActiveX Control 1.5
#
DISCID=b80b620d
DTITLE=hvisduhi - hsdkfj
DYEAR=1900
DGENRE=Blues
TTITLE0=hsdkvjhsdkv
TTITLE1=adschgal
TTITLE2=sdvsdfv
TTITLE3=sdvsdv
TTITLE4=fgnf
TTITLE5=fgn
TTITLE6=hgmgh
TTITLE7=hgmhmg
TTITLE8=hjfgh
TTITLE9=tryrt
TTITLE10=rhtjhn
TTITLE11=bvdfbf 
TTITLE12=rtretrte
EXTD=
EXTT0=
EXTT1=
EXTT2=
EXTT3=
EXTT4=
EXTT5=
EXTT6=
EXTT7=
EXTT8=
EXTT9=
EXTT10=
EXTT11=
EXTT12=
PLAYORDER=
